# xmcd
#
# Track frame offsets: 
#        150
#        22894
#        39935
#        61780
#        83530
#        114349
#        134924
#        162498
#        182988
#        202608
#        220072
#        241438
#        266337
#
# Disc length: 3844 seconds
#
# Revision: 0
# Processed by: cddbd v1.5.2PL0 Copyright (c) Steve Scherf et al.
# Submitted via: ExactAudioCopy v0.95b4
#
DISCID=a60f020d
DTITLE=Dave Lemieux And House Of Soul - Live In The Spirit
DYEAR=2007
DGENRE=Gospel
TTITLE0=Spirit, Help Me
TTITLE1=In The Spirit
TTITLE2=Glory, Glory
TTITLE3=More
TTITLE4=Everything I Am
TTITLE5=Kiss Of A Friend (Interlude)
TTITLE6=Magnificat
TTITLE7=Sing A New Song
TTITLE8=Hallelujah To Our King
TTITLE9=Heavenly Father
TTITLE10=Mountainside
TTITLE11=God, Make Something Beautiful
TTITLE12=The Glassy Sea
EXTD=
EXTT0=
EXTT1=
EXTT2=
EXTT3=
EXTT4=
EXTT5=
EXTT6=
EXTT7=
EXTT8=
EXTT9=
EXTT10=
EXTT11=
EXTT12=
PLAYORDER=
